<?xml version="1.0" encoding="utf-8"?>
<!-- Generator: Adobe Illustrator 24.0.2, SVG Export Plug-In . SVG Version: 6.00 Build 0)  -->
<svg version="1.1" id="Capa_1" xmlns="http://www.w3.org/2000/svg" xmlns:xlink="http://www.w3.org/1999/xlink" x="0px" y="0px"
	 viewBox="0 0 50 50" style="enable-background:new 0 0 50 50;" xml:space="preserve">
<style type="text/css">
	.st0{fill:#003796;}
	.st1{fill:#FFFFFF;}
</style>
<circle class="st0" cx="25" cy="25" r="25"/>
<g>
	<path class="st1" d="M33,34h-1.5c-0.2,0-0.4,0.2-0.4,0.4s0.2,0.4,0.4,0.4H33c0.2,0,0.4-0.2,0.4-0.4C33.3,34.2,33.2,34,33,34z"/>
	<path class="st1" d="M15.8,32.5C15.8,32.5,15.7,32.5,15.8,32.5h-0.3l0,0c0-0.5,0-1,0-1.3l0.5-0.3c0.1-0.1,0.2-0.2,0.2-0.3v-1.1
		c0-0.2-0.2-0.4-0.4-0.4h-1.5V26h0.2c0.1,0,0.3-0.1,0.3-0.2l0.7-1.3v-0.1c0.1-0.4,0-1-0.1-1.9c0-0.2-0.1-0.4-0.1-0.6
		s-0.2-0.3-0.4-0.3H13c-0.2,0-0.4,0.1-0.4,0.3c0,0.1-0.1,0.3-0.1,0.6c-0.1,0.8-0.2,1.5-0.1,1.9v0.1l0.7,1.3c0.1,0.1,0.2,0.2,0.3,0.2
		h0.2v3h-1.5c-0.2,0-0.4,0.2-0.4,0.4v1.1c0,0.1,0.1,0.3,0.2,0.3l0,0L10.5,32l0,0c-0.4,0.5-0.9,5,0.4,6.6c0.3,0.3,0.7,0.5,1.1,0.5
		c0.3,1.6,1.3,1.9,1.9,1.9h0.3c0.6,0,1.7-0.3,1.9-2.3c0.1,0,0.1-0.1,0.2-0.2c0.2-0.2,0.3-0.5,0.3-0.7v-0.6c0,0,0,0,0-0.1
		c0,0,0,0,0-0.1v-1.4c0,0,0,0,0-0.1l0,0v-2.3C16.6,32.9,16.3,32.6,15.8,32.5z M13.1,24.2c-0.1-0.3,0.1-1,0.2-1.5c0-0.1,0-0.2,0-0.3
		h1.3c0,0.1,0,0.2,0,0.3c0.1,0.5,0.2,1.2,0.2,1.5l-0.5,1h-0.6L13.1,24.2z M12.5,29.8h2.9v0.5l-0.5,0.3c-0.1,0.1-0.1,0.1-0.2,0.2
		c-0.1,0.4-0.1,1.2-0.1,1.7h-1.5c0-0.6,0.1-1.3-0.1-1.7c0-0.1-0.1-0.2-0.2-0.2l-0.5-0.3v-0.5H12.5z M14.1,40.4h-0.3
		c-0.2,0-0.9,0-1.1-1.1h0.1h0.3c0.8,0,1.6,0,2.1-0.1C15,40.4,14.3,40.4,14.1,40.4z M15.8,34h-2.1c-0.2,0-0.4,0.2-0.4,0.4
		s0.2,0.4,0.4,0.4h2.1v0.7h-2.1c-0.2,0-0.4,0.2-0.4,0.4s0.2,0.4,0.4,0.4h2.1V37h-2.1c-0.2,0-0.4,0.2-0.4,0.4s0.2,0.4,0.4,0.4h2.1
		v0.3c0,0.1,0,0.2-0.1,0.2c0,0-0.1,0-0.1,0.1c-0.1,0-0.1,0-0.2,0.1c-0.6,0.2-1.6,0.2-2.4,0.2h-0.3c-0.5,0-1.2,0-1.4-0.3
		c-1-1.3-0.6-5.1-0.4-5.6l1.1-1V33c0,0.2,0.2,0.4,0.4,0.4l0,0h3.2c0.1,0,0.1,0,0.1,0.1L15.8,34z"/>
	<path class="st1" d="M39,31.2c-0.4-2.8-3.6-4.6-6.5-5.3c-0.9-0.2-1.8-0.4-2.7-0.5c-0.1,0-0.2,0-0.3,0.1l-3.1,3.3l-0.1,0.1
		c0,0-0.1,0-0.1-0.1L23,25.5c-0.1-0.1-0.2-0.1-0.3-0.1c-0.9,0.1-1.9,0.3-2.7,0.5c-1.6,0.4-3,1-4.1,1.8c-0.2,0.1-0.2,0.4-0.1,0.5
		c0.1,0.2,0.4,0.2,0.5,0.1c0.7-0.5,1.6-0.9,2.6-1.3v5.5h-1c-0.2,0-0.4,0.2-0.4,0.4v7.6c0,0.2,0.2,0.4,0.4,0.4c0.2,0,0.4-0.2,0.4-0.4
		v-7.2h0.9c0.1,0,0.2,0,0.2,0h1.9c0.1,0,0.2,0,0.2,0h9.4c0.1,0,0.2,0,0.2,0H33c0.1,0,0.2,0,0.2,0h0.9v7.2c0,0.2,0.2,0.4,0.4,0.4
		s0.4-0.2,0.4-0.4v-7.6c0-0.2-0.2-0.4-0.4-0.4h-1V27c2.3,0.8,4.5,2.3,4.7,4.3l1,9c0,0.2,0.2,0.4,0.4,0.3c0.2,0,0.4-0.2,0.3-0.4
		L39,31.2z M21.1,32.4h-1.4v-5.7c0.1,0,0.3-0.1,0.4-0.1c0.3-0.1,0.6-0.1,0.9-0.2v6H21.1z M30.7,32.4h-8.8v-6.2
		c0.3,0,0.5-0.1,0.8-0.1l3,3.1c0.4,0.4,1,0.4,1.4,0l3-3.1c0.3,0,0.5,0.1,0.8,0.1v6.2H30.7z M32.8,32.4h-1.4v-6
		c0.3,0.1,0.6,0.1,0.9,0.2c0.1,0,0.3,0.1,0.4,0.1L32.8,32.4L32.8,32.4z"/>
	<path class="st1" d="M20.1,18.8c0.1,0.9,0.4,2,0.8,2.7c1.1,1.9,3.1,3.1,5.4,3.1s4.3-1.2,5.4-3.1c0.4-0.7,0.6-1.8,0.8-2.7
		c0.8-0.3,1.3-1.1,1.3-2c0-0.7-0.3-1.3-0.8-1.5c0,0,0,0,0-0.1c-0.1-1.4-0.1-2.7-0.2-4.1c-0.3-2.1-2.4-4.2-6.5-4.2s-6.2,2.1-6.5,4.3
		c-0.1,1.4-0.1,2.7-0.2,4.1c0,0,0,0,0,0.1c-0.5,0.3-0.9,0.8-0.9,1.5C18.7,17.7,19.3,18.5,20.1,18.8z M20.6,11.2
		c0.3-2.5,3.2-3.6,5.7-3.6s5.4,1.1,5.7,3.6c0.1,1.2,0.1,2.5,0.2,3.7c-3.9-1-7.9-1-11.8,0C20.4,13.6,20.5,12.4,20.6,11.2z M31.8,15.8
		c-0.5,0.7-1.1,0.6-2.2,0.4c-0.2,0-0.5-0.1-0.7-0.1c-1.6-0.2-3.8-0.2-5.3,0c-0.2,0-0.5,0.1-0.7,0.1c-1,0.2-1.6,0.3-2.2-0.4
		c0,0,0-0.1,0.1-0.1c0,0,0,0,0-0.1c3.6-0.9,7.3-0.9,10.9,0c0,0,0,0,0,0.1C31.7,15.7,31.8,15.7,31.8,15.8z M19.9,16
		c0.9,1.3,1.9,1.2,3.1,1c0.2,0,0.4-0.1,0.7-0.1c1.5-0.2,3.6-0.2,5.1,0c0.2,0,0.5,0.1,0.7,0.1c1.2,0.2,2.2,0.4,3.1-1
		c0.3,0.1,0.4,0.4,0.4,0.8c0,0.6-0.4,1.2-1,1.3c-0.2,0-0.3,0.2-0.3,0.3c-0.2,1.2-0.4,2.2-0.7,2.7c-0.9,1.7-2.7,2.7-4.7,2.7
		s-3.8-1-4.7-2.7c-0.3-0.5-0.5-1.5-0.7-2.7c0-0.2-0.2-0.3-0.3-0.3c-0.5-0.1-1-0.7-1-1.3C19.5,16.4,19.7,16.1,19.9,16z"/>
	<path class="st1" d="M21,34h-1.5c-0.2,0-0.4,0.2-0.4,0.4s0.2,0.4,0.4,0.4H21c0.2,0,0.4-0.2,0.4-0.4S21.3,34,21,34z"/>
</g>
</svg>
