<?xml version="1.0" encoding="utf-8"?>
<!-- Generator: Adobe Illustrator 24.0.2, SVG Export Plug-In . SVG Version: 6.00 Build 0)  -->
<svg version="1.1" id="Capa_1" xmlns="http://www.w3.org/2000/svg" xmlns:xlink="http://www.w3.org/1999/xlink" x="0px" y="0px"
	 viewBox="0 0 50 50" style="enable-background:new 0 0 50 50;" xml:space="preserve">
<style type="text/css">
	.st0{fill:#003796;}
	.st1{fill:#FFFFFF;}
</style>
<circle class="st0" cx="25" cy="25" r="25"/>
<g>
	<path class="st1" d="M25,8C15.6,8,8,15.6,8,25s7.6,17,17,17s17-7.6,17-17S34.4,8,25,8z M25,41.3C16,41.3,8.7,34,8.7,25
		S16,8.7,25,8.7S41.3,16,41.3,25S34,41.3,25,41.3z"/>
	<path class="st1" d="M32.9,17.5l-10.1,8.7L18.4,21L14,24.8l8.2,9.7l14.6-12.6L32.9,17.5z M14.9,24.8l3.4-2.9l4.4,5.2l10.1-8.7
		l2.9,3.4L22.3,33.5L14.9,24.8z"/>
</g>
</svg>
