<?xml version="1.0" encoding="utf-8"?>
<!-- Generator: Adobe Illustrator 24.0.2, SVG Export Plug-In . SVG Version: 6.00 Build 0)  -->
<svg version="1.1" id="Capa_1" xmlns="http://www.w3.org/2000/svg" xmlns:xlink="http://www.w3.org/1999/xlink" x="0px" y="0px"
	 viewBox="0 0 50 50" style="enable-background:new 0 0 50 50;" xml:space="preserve">
<style type="text/css">
	.st0{fill:#003796;}
	.st1{fill:#FFFFFF;}
</style>
<circle class="st0" cx="25" cy="25" r="25"/>
<g>
	<path class="st1" d="M37.2,22.1L33,16.8c-0.3-0.3-0.7-0.6-1.1-0.6V15c0-0.6-0.5-1.1-1.1-1.1H19.3c-0.6,0-1.1,0.5-1.1,1.1v1.2
		c-0.4,0-0.9,0.2-1.1,0.6l-4.2,5.3c-0.2,0.2-0.3,0.5-0.3,0.9v17.3c0,1.5,1.2,2.7,2.7,2.7h19.6c1.5,0,2.7-1.2,2.7-2.7V23
		C37.5,22.7,37.4,22.4,37.2,22.1z M18.8,15.1c0-0.3,0.2-0.5,0.5-0.5h11.4c0.3,0,0.5,0.2,0.5,0.5v1.2H18.8V15.1z M36.9,40.3
		c0,1.1-0.9,2.1-2,2.1H15.2c-1.1,0-2-0.9-2-2.1V23c0-0.2,0.1-0.3,0.2-0.5l4.2-5.3c0.2-0.2,0.4-0.3,0.7-0.3h13.6
		c0.3,0,0.5,0.1,0.7,0.3l4.2,5.3c0.1,0.1,0.2,0.3,0.2,0.5L36.9,40.3L36.9,40.3z"/>
	<path class="st1" d="M21.1,12.6c0.1,0,0.1,0,0.2,0s0.1,0,0.2,0c0.9-0.1,1.7-0.6,2.1-1.4c0.4-0.9,0.4-1.9-0.1-2.7L21.3,5l-2.2,3.5
		c-0.5,0.8-0.6,1.8-0.1,2.7C19.4,12,20.2,12.6,21.1,12.6z M19.6,8.8l1.7-2.6L23,8.8c0.4,0.6,0.4,1.4,0.1,2.1c-0.3,0.6-0.9,1-1.6,1.1
		c-0.1,0-0.2,0-0.3,0c-0.7,0-1.3-0.5-1.6-1.1C19.2,10.2,19.2,9.5,19.6,8.8z"/>
	<path class="st1" d="M28.4,9.7l-0.9-1.2L27,8.9l1.7,2.3l1.7-2.3L30,8.5l-0.9,1.2V6.4h-4.8V7h4.2v2.7H28.4z"/>
</g>
</svg>
