<?xml version="1.0" encoding="utf-8"?>
<!-- Generator: Adobe Illustrator 24.0.2, SVG Export Plug-In . SVG Version: 6.00 Build 0)  -->
<svg version="1.1" id="Capa_1" xmlns="http://www.w3.org/2000/svg" xmlns:xlink="http://www.w3.org/1999/xlink" x="0px" y="0px"
	 viewBox="0 0 50 50" style="enable-background:new 0 0 50 50;" xml:space="preserve">
<style type="text/css">
	.st0{fill:#003796;}
	.st1{fill:#FFFFFF;}
</style>
<circle class="st0" cx="25" cy="25" r="25"/>
<path class="st1" d="M40.1,14.9c0.1-1,0-1.4-0.2-1.7c-2-3.5-5.5-4.9-5.7-5h-0.1h-0.5c-0.3-0.6-0.8-0.8-0.8-0.8l0,0l-1.4-0.1
	c-1.4-0.6-2.8-0.8-3.5-0.8V6.3l-0.3-0.1h-0.1C26.9,6,25.1,6,25,6s-1.9,0-2.6,0.1L22,6.3v0.2c-0.6,0-2.1,0.2-3.5,0.8l-1.4,0.1l0,0
	c0,0-0.6,0.2-0.8,0.8h-0.5h-0.1c-0.1,0.1-3.7,1.4-5.7,5c-0.2,0.3-0.2,0.6-0.2,1.7l0,0c0,0,0,0.1,0,0.2c0,0.1,0,0.3,0,0.4
	c0.1,0.7,0.4,5.3,0.7,10.2c0.4,5.2,0.7,10.6,0.8,11.3c0.2,1.9,3.7,7,13.6,7s13.4-5.1,13.6-7c0.1-0.8,0.4-6.1,0.8-11.3
	c0.3-4.9,0.7-9.5,0.7-10.2c0-0.2,0-0.3,0-0.4C40.1,15,40.2,14.9,40.1,14.9L40.1,14.9z M10.6,13.5c1.8-3.1,4.9-4.5,5.3-4.7h0.8
	l0.1-0.2C16.9,8.2,17.2,8,17.3,8l1.4-0.1h0.1C20.4,7.1,22.3,7,22.3,7h0.3V6.7C23.3,6.6,25,6.6,25,6.6s1.7,0,2.3,0.1V7h0.3
	c0,0,1.9,0,3.6,0.8h0.1L32.7,8c0.1,0.1,0.4,0.3,0.5,0.6l0.1,0.2h0.8c0.4,0.2,3.5,1.6,5.3,4.7c0.1,0.2,0.2,0.4,0.1,1.4
	c-0.1,0.2-0.6,1-3,1.8l-1.3-0.6h-0.1c0,0-3.7,1.3-10.1,1.3s-10-1.2-10.1-1.3h-0.1l-1.3,0.6c-2.4-0.8-2.9-1.6-3-1.8
	C10.4,13.9,10.5,13.7,10.6,13.5z M35.5,16.9l0.7,0.3l-0.7,10.2V16.9z M14.5,27.4l-0.7-10.2l0.7-0.3V27.4z M38.8,25.7
	C38.4,30.8,38,36.2,38,37c-0.1,1.1-2.7,6.4-13,6.4S12.1,38,12,37c-0.1-0.8-0.4-6.1-0.8-11.3c-0.3-4.2-0.6-8.2-0.7-9.7
	c0.5,0.4,1.3,0.9,2.6,1.3l1.3,19.4H15V16.9c1.1,0.3,4.5,1.2,9.9,1.2s8.8-0.8,9.9-1.2v19.8h0.6l1.3-19.4c1.3-0.4,2.2-0.9,2.6-1.3
	C39.3,17.5,39.1,21.5,38.8,25.7z"/>
</svg>
