<?xml version="1.0" encoding="utf-8"?>
<!-- Generator: Adobe Illustrator 24.0.2, SVG Export Plug-In . SVG Version: 6.00 Build 0)  -->
<svg version="1.1" id="Capa_1" xmlns="http://www.w3.org/2000/svg" xmlns:xlink="http://www.w3.org/1999/xlink" x="0px" y="0px"
	 viewBox="0 0 50 50" style="enable-background:new 0 0 50 50;" xml:space="preserve">
<style type="text/css">
	.st0{fill:#003796;}
	.st1{fill:#FFFFFF;}
</style>
<circle class="st0" cx="25" cy="25" r="25"/>
<g>
	<path class="st1" d="M20,23.3c-0.5,0.2-0.9,0.6-1.2,1.1c-0.2,0.5-0.3,1.1-0.1,1.6c0.2,0.5,0.6,0.9,1.1,1.2c0.3,0.1,0.6,0.2,0.9,0.2
		c0.2,0,0.5,0,0.7-0.1c1.1-0.4,1.6-1.6,1.3-2.7C22.3,23.5,21.1,23,20,23.3z M21.2,26.6c-0.7,0.3-1.5-0.1-1.8-0.8
		c-0.3-0.7,0.1-1.5,0.8-1.8c0.2-0.1,0.3-0.1,0.5-0.1c0.6,0,1.1,0.4,1.3,0.9C22.2,25.6,21.9,26.4,21.2,26.6z"/>
	<path class="st1" d="M29.7,22.4c-0.4-0.2-0.9-0.2-1.3-0.1c-0.4,0.2-0.8,0.5-1,0.9s-0.2,0.9-0.1,1.3c0.2,0.7,0.9,1.1,1.6,1.1
		c0.2,0,0.4,0,0.6-0.1c0.4-0.2,0.8-0.5,1-0.9s0.2-0.9,0.1-1.3C30.4,23,30.1,22.6,29.7,22.4z M29.9,24.4c-0.1,0.2-0.3,0.4-0.6,0.5
		c-0.2,0.1-0.5,0.1-0.8,0c-0.2-0.1-0.4-0.3-0.5-0.6c-0.2-0.5,0.1-1.1,0.6-1.3c0.1,0,0.2-0.1,0.3-0.1c0.4,0,0.8,0.3,0.9,0.7
		C30,23.9,30,24.1,29.9,24.4z"/>
	<path class="st1" d="M25.1,19.1c-0.7,0.2-1.1,1-0.8,1.7c0.2,0.5,0.7,0.9,1.3,0.9c0.1,0,0.3,0,0.5-0.1c0.7-0.2,1.1-1,0.8-1.7
		C26.6,19.2,25.8,18.9,25.1,19.1z M25.8,21c-0.3,0.1-0.7-0.1-0.8-0.4c-0.1-0.3,0.1-0.7,0.4-0.8c0.1,0,0.1,0,0.2,0
		c0.3,0,0.5,0.2,0.6,0.4C26.3,20.5,26.1,20.9,25.8,21z"/>
	<path class="st1" d="M25.1,28.1c-0.3,0.1-0.6,0.4-0.8,0.7c-0.2,0.3-0.2,0.7-0.1,1c0.2,0.5,0.7,0.9,1.3,0.9c0.1,0,0.3,0,0.4-0.1
		c0.3-0.1,0.6-0.4,0.8-0.7c0.2-0.3,0.2-0.7,0.1-1C26.6,28.3,25.8,27.9,25.1,28.1z M26.2,29.7C26.1,29.9,26,30,25.8,30
		c-0.3,0.1-0.7-0.1-0.8-0.4c-0.1-0.2,0-0.3,0-0.5c0.1-0.2,0.2-0.3,0.4-0.3c0.1,0,0.1,0,0.2,0c0.3,0,0.5,0.2,0.6,0.4
		C26.2,29.4,26.2,29.5,26.2,29.7z"/>
	<path class="st1" d="M25,8C15.6,8,8,15.6,8,25s7.6,17,17,17s17-7.6,17-17S34.4,8,25,8z M41.3,25c0,4.4-1.7,8.3-4.5,11.3l-5.6-5.6
		c0.2-0.2,0.3-0.4,0.5-0.6l1.8,0.9c0.4,0.2,0.9,0.2,1.4,0.1c0.4-0.2,0.8-0.5,1-0.9c0.4-0.9,0-1.9-0.8-2.4l-1.8-0.9
		c0.2-1,0.3-2,0.2-3l1.9-0.7c0.9-0.3,1.4-1.3,1.1-2.3c-0.2-0.4-0.5-0.8-0.9-1s-0.9-0.2-1.4-0.1l-1.9,0.7c-0.5-0.9-1.2-1.6-2-2.3
		l0.9-1.8c0.4-0.9,0-1.9-0.8-2.4c-0.4-0.2-0.9-0.2-1.4-0.1c-0.4,0.2-0.8,0.5-1,0.9l-0.9,1.8c-1-0.2-2-0.3-3-0.2l-0.7-1.9
		c-0.3-0.9-1.3-1.4-2.3-1.1C20,14,19.6,15,19.9,15.9l0.7,1.9c-0.5,0.3-0.9,0.6-1.3,1l-5.6-5.6c2.9-2.8,6.9-4.5,11.3-4.5
		C34,8.7,41.3,16,41.3,25z M29.5,34.3c0.1,0.3,0.1,0.6,0,0.8c-0.1,0.3-0.3,0.5-0.6,0.5c-0.6,0.2-1.2-0.1-1.4-0.6l-0.9-2.5h-0.3
		c-1.1,0.2-2.2,0.1-3.3-0.2l-0.3-0.1l-1.1,2.4c-0.3,0.5-0.9,0.8-1.4,0.5c-0.3-0.1-0.5-0.3-0.5-0.6c-0.1-0.3-0.1-0.6,0-0.8l1.1-2.4
		l-0.2-0.2c-0.9-0.7-1.7-1.5-2.2-2.5l-0.1-0.3l-2.5,0.9c-0.6,0.2-1.2-0.1-1.4-0.6c-0.1-0.3-0.1-0.6,0-0.8c0.1-0.3,0.3-0.5,0.6-0.5
		l2.5-0.9v-0.3c-0.2-1.1-0.1-2.2,0.2-3.3l0.1-0.3l-2.4-1.1c-0.3-0.1-0.5-0.3-0.5-0.6c-0.1-0.3-0.1-0.6,0-0.8
		c0.3-0.5,0.9-0.8,1.4-0.5l2.4,1.1l0.2-0.2c0.2-0.3,0.4-0.5,0.6-0.7l10.9,10.9c-0.4,0.4-0.9,0.7-1.4,1l-0.3,0.1L29.5,34.3z
		 M19.8,19.3c0.4-0.4,0.9-0.7,1.4-1l0.3-0.1l-0.9-2.5c-0.2-0.6,0.1-1.2,0.6-1.4c0.6-0.2,1.2,0.1,1.4,0.6l0.9,2.5h0.3
		c1.1-0.2,2.2-0.1,3.3,0.2l0.3,0.1l1.1-2.4c0.1-0.3,0.3-0.5,0.6-0.5c0.3-0.1,0.6-0.1,0.8,0c0.5,0.3,0.8,0.9,0.5,1.4l-1.1,2.4
		l0.2,0.2c0.9,0.7,1.7,1.5,2.2,2.5l0.1,0.3l2.5-0.9c0.3-0.1,0.6-0.1,0.8,0c0.3,0.1,0.5,0.3,0.5,0.6c0.2,0.6-0.1,1.2-0.6,1.4
		l-2.5,0.9v0.3c0.2,1.1,0.1,2.2-0.2,3.3l-0.1,0.3l2.4,1.1c0.5,0.3,0.8,0.9,0.5,1.4c-0.1,0.3-0.3,0.5-0.6,0.6s-0.6,0.1-0.8,0
		l-2.4-1.1l-0.2,0.2c-0.2,0.3-0.4,0.5-0.6,0.7L19.8,19.3z M8.7,25c0-4.4,1.7-8.3,4.5-11.3l5.6,5.6c-0.2,0.2-0.3,0.4-0.5,0.6L16.5,19
		c-0.9-0.4-1.9,0-2.4,0.8c-0.2,0.4-0.2,0.9-0.1,1.4c0.2,0.4,0.5,0.8,0.9,1l1.8,0.9c-0.2,1-0.3,2-0.2,3l-1.9,0.7
		c-0.4,0.2-0.8,0.5-1,0.9s-0.2,0.9-0.1,1.4c0.3,0.9,1.3,1.4,2.3,1.1l1.9-0.7c0.5,0.9,1.2,1.6,2,2.3L19,33.5
		c-0.2,0.4-0.2,0.9-0.1,1.4c0.2,0.4,0.5,0.8,0.9,1c0.9,0.4,1.9,0,2.4-0.8l0.9-1.8c1,0.2,2,0.3,3,0.2l0.7,1.9c0.2,0.4,0.5,0.8,0.9,1
		c0.2,0.1,0.5,0.2,0.8,0.2c0.2,0,0.4,0,0.6-0.1c0.4-0.2,0.8-0.5,1-0.9s0.2-0.9,0.1-1.4l-0.7-1.9c0.5-0.3,0.9-0.6,1.3-1l5.6,5.6
		c-2.9,2.8-6.9,4.5-11.3,4.5C16,41.3,8.7,34,8.7,25z"/>
</g>
</svg>
