<?xml version="1.0" encoding="utf-8"?>
<!-- Generator: Adobe Illustrator 24.0.2, SVG Export Plug-In . SVG Version: 6.00 Build 0)  -->
<svg version="1.1" id="Capa_1" xmlns="http://www.w3.org/2000/svg" xmlns:xlink="http://www.w3.org/1999/xlink" x="0px" y="0px"
	 viewBox="0 0 50 50" style="enable-background:new 0 0 50 50;" xml:space="preserve">
<style type="text/css">
	.st0{fill:#003796;}
	.st1{fill:#FFFFFF;}
</style>
<circle class="st0" cx="25" cy="25" r="25"/>
<path class="st1" d="M46,23.6L46,23.6c-0.3-1.5-1.2-2.9-2.5-4.2c-0.3-0.3-0.7-0.5-1.2-0.5h-1.7c-2.2-1.7-5.5-3.1-9.1-3.8v-0.3
	c0-0.5-0.3-0.9-0.8-0.9c-3.7-0.6-7.8-0.6-11.5,0c-0.5,0.1-0.8,0.5-0.8,0.9v0.3c-3.6,0.7-6.9,2.1-9.1,3.8H7.6c-0.4,0-0.9,0.2-1.2,0.5
	c-1.3,1.3-2.1,2.7-2.4,4.1l0,0l0,0l0,0l0.1,2.6c0,0.4,0.1,0.7,0.3,1c0.1,0.2,0.2,0.3,0.2,0.4c0.2,0.3,0.6,0.5,1,0.5h1.3
	c0.1,0.2,0.2,0.4,0.3,0.5c0,0.7,0,1.2,0,1.3c0.1,0.5,2.4,2,2.4,2.1c1,0.6,2.9,1.5,3.4,1.6c0.4,0.1,1.4,0.1,1.9,0.1
	c0.6,0.2,1.3,0.4,2,0.6v0.3c0,0.5,0.4,0.9,0.8,1c2.3,0.5,4.8,0.7,7.3,0.7s5-0.2,7.3-0.7c0.5-0.1,0.8-0.5,0.8-1v-0.3
	c0.7-0.2,1.4-0.4,2-0.6c0.5,0,1.5,0,1.9-0.1s2.4-1,3.4-1.6c0,0,2.3-1.5,2.4-2.1c0-0.1,0-0.6,0-1.3c0.1-0.2,0.2-0.4,0.3-0.5h1.3
	c0.4,0,0.8-0.2,1-0.5c0.1-0.1,0.2-0.3,0.2-0.4c0.2-0.3,0.3-0.7,0.3-1L46,23.6L46,23.6L46,23.6z M43.1,19.9c1.2,1.2,1.9,2.5,2.3,3.8
	c-0.1,1.4-0.3,1.9-0.4,2h-2.7c-0.2,0-0.3,0-0.5,0l-4.5-0.9c-0.1,0-0.3-0.1-0.3-0.2l0,0c0.4-0.6,0.5-1.2,0.5-1.9
	c0-0.9-0.4-1.8-1.1-2.6l0,0l4.2-0.4h1.8C42.6,19.6,42.9,19.7,43.1,19.9z M30.6,28.4C30.7,28.4,30.7,28.5,30.6,28.4l1.6,2.7l0,0
	l0.2,1.7c-0.4,0.4-0.9,0.6-1.4,0.6l-6,0.3l-6.1-0.3c-0.5,0-1-0.2-1.4-0.6l0.2-1.7l0,0l1.5-2.7c0,0,0,0,0.1-0.1l0.5-0.2
	c1.6,0.3,3.3,0.5,5.1,0.5c1.8,0,3.6-0.2,5.1-0.5L30.6,28.4z M25,28.1c-4.5,0-8.4-1.2-10.4-3h20.7C33.4,26.9,29.5,28.1,25,28.1z
	 M14.8,19.9h20.4c0.9,0.8,1.5,1.7,1.5,2.7c0,0.7-0.2,1.3-0.7,1.9H14c-0.5-0.6-0.7-1.2-0.7-1.9C13.3,21.6,13.9,20.7,14.8,19.9z
	 M15.7,19.2c2.1-1.3,5.5-2.2,9.3-2.2s7.1,0.9,9.3,2.2H15.7z M19.1,14.8c0-0.1,0.1-0.3,0.2-0.3C23,14,27,14,30.6,14.5
	c0.1,0,0.2,0.1,0.2,0.3v0.6h0.3L31,15.7c3.3,0.6,6.3,1.8,8.5,3.3L36,19.3l-0.2,0.2c-2.1-1.9-6.1-3.2-10.8-3.2s-8.7,1.3-10.8,3.2
	L14,19.3L10.4,19c2.2-1.5,5.1-2.6,8.5-3.3l-0.1-0.3h0.3C19.1,15.4,19.1,14.8,19.1,14.8z M6.9,19.9c0.2-0.2,0.4-0.3,0.7-0.3h1.8
	l4.2,0.4l0,0c-0.7,0.8-1.1,1.6-1.1,2.6c0,0.7,0.2,1.3,0.5,1.9l0,0c-0.1,0.1-0.2,0.2-0.3,0.2l-4.5,0.9c-0.2,0-0.3,0-0.5,0H5
	c0-0.1-0.3-0.6-0.4-2C5,22.4,5.7,21.1,6.9,19.9z M5.2,27.4C5.1,27.3,5,27.1,4.9,27c-0.1-0.2-0.2-0.5-0.2-0.7h0.1h1.8v1.2H5.5
	C5.4,27.6,5.2,27.5,5.2,27.4z M15,33.2c-0.1,0-0.1,0-0.2,0c-0.8,0-1.5,0-1.7-0.1c-0.3-0.1-2.2-0.9-3.2-1.5C9,31,8,30.2,7.8,29.9
	c0-0.1,0-0.5,0-1.2c0-0.1,0-0.3-0.1-0.4c-0.1-0.2-0.3-0.4-0.4-0.6v-1.5h0.5c0.2,0,0.4,0,0.6-0.1l4.5-0.9c0.2,0,0.5-0.2,0.6-0.4
	c1,1.3,2.9,2.3,5.2,3l-0.1,0.1l-1.5,2.7c0,0.1-0.1,0.2-0.1,0.3l-0.3,1.8v0.8C16.2,33.6,15.6,33.4,15,33.2z M32.2,35.2
	c-2.3,0.5-4.7,0.7-7.2,0.7s-4.9-0.2-7.2-0.7c-0.2,0-0.3-0.2-0.3-0.4v-1.1c0.4,0.3,0.9,0.4,1.4,0.4l6.2,0.3l6.1-0.3
	c0.5,0,1-0.2,1.4-0.4v1.1C32.5,35,32.4,35.1,32.2,35.2z M42.3,28.4c-0.1,0.1-0.1,0.2-0.1,0.4c0,0.6,0,1,0,1.2
	c-0.2,0.2-1.2,1-2.1,1.6s-2.8,1.4-3.2,1.5c-0.2,0.1-0.9,0.1-1.7,0.1c-0.1,0-0.1,0-0.2,0c-0.6,0.2-1.2,0.4-1.8,0.5V33l-0.3-1.9
	c0-0.1,0-0.2-0.1-0.3l-1.5-2.7c0-0.1-0.1-0.1-0.1-0.1c2.3-0.7,4.2-1.7,5.2-3c0.2,0.2,0.4,0.3,0.6,0.4l4.5,0.9c0.2,0,0.4,0.1,0.6,0.1
	h0.5v1.5C42.6,28,42.5,28.2,42.3,28.4z M45.1,27c-0.1,0.1-0.2,0.3-0.2,0.4c-0.1,0.1-0.2,0.2-0.4,0.2h-1.1v-1.2h1.7l0,0h0.1
	C45.2,26.5,45.2,26.8,45.1,27z"/>
</svg>
