<?xml version="1.0" encoding="utf-8"?>
<!-- Generator: Adobe Illustrator 24.0.2, SVG Export Plug-In . SVG Version: 6.00 Build 0)  -->
<svg version="1.1" id="Capa_1" xmlns="http://www.w3.org/2000/svg" xmlns:xlink="http://www.w3.org/1999/xlink" x="0px" y="0px"
	 viewBox="0 0 50 50" style="enable-background:new 0 0 50 50;" xml:space="preserve">
<style type="text/css">
	.st0{fill:#003796;}
	.st1{fill:#FFFFFF;}
</style>
<circle class="st0" cx="25" cy="25" r="25"/>
<path class="st1" d="M40.4,43.3c-1.5-0.3-2.9-0.5-4.2-0.7l-5.5-8.1c-0.8-1.2-2.2-1.9-3.6-1.9h-1.6v-8.4l0.2,0.6l0.8-0.2
	c0.5-0.1,0.9-0.5,1.1-0.9l1.8-3.7l0,0c0.1-0.2,0.1-0.3,0.1-0.5l0.3-3.2c0.1-0.9,0.4-1.8,1-2.5l3.1-4.1l-0.5-0.4l-3.1,4.1
	c-0.6,0.8-1,1.8-1.1,2.8l-0.3,3.2c0,0.1,0,0.2-0.1,0.3L27,23.3c-0.1,0.3-0.4,0.5-0.7,0.6l-0.8,0.2v-2.5c0-0.5-0.3-1-0.8-1.2h-0.1
	L25,20c0.3-0.2,0.4-0.6,0.4-0.9c0-0.5-0.3-1-0.8-1.2h-0.1l0.5-0.5c0.3-0.2,0.4-0.6,0.4-0.9c0-0.5-0.3-1-0.8-1.2h-0.1l0.5-0.5
	c0.3-0.2,0.4-0.6,0.4-0.9v-2.6L29,6.5l-0.5-0.4l-3,4V6h-0.7v6.7c0,0-0.1,0-0.1-0.1c-0.5-0.2-1-0.1-1.4,0.2l-0.4,0.4V6h-0.7v7.9
	l-1.7,1.6c-0.3,0.2-0.4,0.6-0.4,0.9c0,0.5,0.3,1,0.8,1.2H21l-0.5,0.5c-0.3,0.2-0.4,0.6-0.4,0.9c0,0.5,0.3,1,0.8,1.2H21l-0.5,0.5
	c-0.3,0.2-0.4,0.6-0.4,0.9c0,0.5,0.3,1,0.8,1.2H21l-0.5,0.5c-0.3,0.2-0.4,0.6-0.4,0.9c0,0.5,0.3,1,0.8,1.2c0.2,0.1,0.3,0.1,0.5,0.1
	c0.3,0,0.6-0.1,0.8-0.3v7.3h-2c-1.7,0-3.3,1-4.1,2.5l-2.3,4.6c-2.8-0.2-4.2-0.3-4.2-0.3V40c0.1,0,8.8,0.2,26.1,3.1l0,0l0,0
	c1.4,0.2,2.9,0.5,4.5,0.8L40.4,43.3z M22.8,24.7l1.9-1.8v13.9c0,0.5-0.4,1-1,1c-0.5,0-1-0.4-1-1V24.7H22.8z M21.1,17
	c-0.2-0.1-0.4-0.3-0.4-0.6c0-0.2,0.1-0.3,0.2-0.4l2.8-2.7c0.1-0.1,0.3-0.2,0.4-0.2s0.2,0,0.2,0.1c0.2,0.1,0.4,0.3,0.4,0.6
	c0,0.2-0.1,0.3-0.2,0.4l-1.3,1.2l0,0l-1.5,1.4C21.6,17.1,21.4,17.1,21.1,17z M20.7,19.1c0-0.2,0.1-0.3,0.2-0.4l1.3-1.2l0,0l1.5-1.4
	c0.1-0.1,0.3-0.2,0.4-0.2s0.2,0,0.2,0.1c0.2,0.1,0.4,0.3,0.4,0.6c0,0.2-0.1,0.3-0.2,0.4l-2.8,2.7c-0.2,0.2-0.4,0.2-0.7,0.1
	C20.9,19.5,20.7,19.3,20.7,19.1z M21.1,22.3c-0.2-0.1-0.4-0.3-0.4-0.6c0-0.2,0.1-0.3,0.2-0.4l2.8-2.7c0.1-0.1,0.3-0.2,0.4-0.2
	s0.2,0,0.2,0.1c0.2,0.1,0.4,0.3,0.4,0.6c0,0.2-0.1,0.3-0.2,0.4l-1.3,1.2l0,0l-1.5,1.4C21.6,22.3,21.4,22.4,21.1,22.3z M21.1,24.9
	c-0.2-0.1-0.4-0.3-0.4-0.6c0-0.2,0.1-0.3,0.2-0.4l1.3-1.2l0,0l1.5-1.4c0.2-0.2,0.4-0.2,0.7-0.1c0.2,0.1,0.4,0.3,0.4,0.6
	c0,0.2-0.1,0.3-0.2,0.4l-2.8,2.7C21.6,24.9,21.4,25,21.1,24.9z M14.6,39.8l2.1-4.3c0.7-1.3,2-2.2,3.5-2.2h2V37l0,0
	c0.1,0.8,0.8,1.4,1.6,1.4c0.9,0,1.6-0.7,1.6-1.6v-3.5H27c1.2,0,2.4,0.6,3.1,1.6l5.1,7.6C25.7,40.9,18.8,40.1,14.6,39.8z"/>
</svg>
