<?xml version="1.0" encoding="utf-8"?>
<!-- Generator: Adobe Illustrator 24.0.2, SVG Export Plug-In . SVG Version: 6.00 Build 0)  -->
<svg version="1.1" id="Capa_1" xmlns="http://www.w3.org/2000/svg" xmlns:xlink="http://www.w3.org/1999/xlink" x="0px" y="0px"
	 viewBox="0 0 50 50" style="enable-background:new 0 0 50 50;" xml:space="preserve">
<style type="text/css">
	.st0{fill:#003796;}
	.st1{fill:#FFFFFF;}
</style>
<circle class="st0" cx="25" cy="25" r="25"/>
<g>
	<path class="st1" d="M32.1,31.2V14c0-0.3-0.1-0.6-0.3-0.8l-4.3-5.3c-0.3-0.3-0.7-0.5-1.1-0.6V6.1c0-0.6-0.5-1.1-1.1-1.1H13.7
		c-0.6,0-1.1,0.5-1.1,1.1v1.2c-0.4,0-0.9,0.2-1.1,0.6l-4.3,5.3C7,13.4,6.9,13.7,6.9,14v17.2c0,1.5,1.2,2.7,2.7,2.7h19.8
		C30.9,33.9,32.1,32.7,32.1,31.2z M13.3,6.1c0-0.3,0.2-0.5,0.5-0.5h11.6c0.3,0,0.5,0.2,0.5,0.5v1.2H13.3V6.1z M7.5,31.2V14
		c0-0.2,0.1-0.3,0.2-0.4L12,8.2c0.2-0.2,0.4-0.3,0.7-0.3h13.7c0.3,0,0.5,0.1,0.7,0.3l4.3,5.3c0.1,0.1,0.2,0.3,0.2,0.4v17.2
		c0,1.1-0.9,2.1-2.1,2.1H9.6C8.4,33.3,7.5,32.3,7.5,31.2z"/>
	<path class="st1" d="M42.9,37.4c-2.1-0.6-5.7-1.7-5.7-2.2s3.6-1.6,5.7-2.2c0.2,0,0.3-0.2,0.2-0.4c0-0.2-0.2-0.3-0.4-0.2
		c-2.3,0.5-5.8,1.3-6.1,0.9c-0.3-0.4,2.2-3.1,3.8-4.8c0.1-0.1,0.1-0.3,0-0.4s-0.3-0.1-0.4,0c-1.7,1.6-4.4,4-4.8,3.8
		c-0.4-0.3,0.3-3.7,0.9-6c0-0.2-0.1-0.3-0.2-0.4c-0.2,0-0.3,0.1-0.4,0.2c-0.6,2.1-1.7,5.7-2.2,5.7c-0.2,0-0.3,0.1-0.3,0.3
		c0,0.2,0.1,0.3,0.3,0.3c0.4,0,0.8-0.4,1.2-1.4c-0.1,1.1,0,1.6,0.4,1.8s0.9,0.1,1.8-0.6c-0.7,0.9-0.8,1.4-0.6,1.8s0.7,0.5,1.8,0.4
		c-1,0.4-1.4,0.8-1.4,1.2s0.4,0.8,1.4,1.2c-1.1-0.1-1.6,0-1.8,0.4s-0.1,0.9,0.6,1.8c-0.9-0.7-1.4-0.8-1.8-0.6
		c-0.4,0.2-0.5,0.7-0.4,1.8c-0.4-1-0.8-1.4-1.2-1.4s-0.8,0.4-1.2,1.4c0.1-1.1,0-1.6-0.4-1.8s-0.9-0.1-1.8,0.6
		c0.7-0.9,0.8-1.4,0.6-1.8c-0.2-0.4-0.7-0.5-1.8-0.4c1-0.4,1.4-0.8,1.4-1.2c0-0.2-0.1-0.3-0.3-0.3c-0.2,0-0.3,0.1-0.3,0.3
		c0,0.5-3.6,1.6-5.7,2.2c-0.2,0-0.3,0.2-0.2,0.4c0,0.2,0.2,0.3,0.4,0.2c2.3-0.5,5.8-1.3,6.1-0.9c0.3,0.4-2.2,3.1-3.8,4.8
		c-0.1,0.1-0.1,0.3,0,0.4c0.1,0.1,0.3,0.1,0.4,0c1.7-1.6,4.4-4,4.8-3.8c0.4,0.3-0.3,3.7-0.9,6c0,0.2,0.1,0.3,0.2,0.4
		c0.2,0,0.3-0.1,0.4-0.2c0.6-2.1,1.7-5.7,2.2-5.7s1.6,3.6,2.2,5.7c0,0.1,0.2,0.2,0.3,0.2H36c0.2,0,0.3-0.2,0.2-0.4
		c-0.5-2.3-1.3-5.8-0.9-6c0.4-0.3,3.1,2.2,4.8,3.8c0.1,0.1,0.3,0.1,0.4,0c0.1-0.1,0.1-0.3,0-0.4c-1.6-1.7-4.1-4.3-3.8-4.8
		c0.3-0.4,3.7,0.3,6.1,0.9c0.2,0,0.3-0.1,0.4-0.2C43.1,37.6,43,37.4,42.9,37.4z"/>
</g>
</svg>
