<?xml version="1.0" encoding="utf-8"?>
<!-- Generator: Adobe Illustrator 24.0.2, SVG Export Plug-In . SVG Version: 6.00 Build 0)  -->
<svg version="1.1" id="Capa_1" xmlns="http://www.w3.org/2000/svg" xmlns:xlink="http://www.w3.org/1999/xlink" x="0px" y="0px"
	 viewBox="0 0 50 35" style="enable-background:new 0 0 50 35;" xml:space="preserve">
<style type="text/css">
	.st0{fill:#FFFFFF;}
</style>
<g>
	<path class="st0" d="M24.7,35c-0.8,0-1.6-0.2-2.3-0.7l-21-15.7c-0.6-0.5-0.8-1.4-0.3-2c0.5-0.6,1.4-0.8,2.1-0.3l21,15.7
		c0.3,0.2,0.7,0.2,1,0l21-15.7c0.6-0.5,1.6-0.4,2.1,0.3c0.5,0.6,0.4,1.6-0.3,2L27,34.3C26.3,34.8,25.5,35,24.7,35z"/>
	<path class="st0" d="M24.7,25c-0.6,0-1.2-0.2-1.7-0.6l-11.8-8.9c-0.6-0.5-0.8-1.4-0.3-2c0.5-0.6,1.4-0.8,2.1-0.3l10.9,8.2
		c0.5,0.3,1.1,0.3,1.5,0l10.9-8.2c0.6-0.5,1.6-0.4,2.1,0.3c0.5,0.6,0.4,1.6-0.3,2l-11.8,8.9C25.9,24.8,25.3,25,24.7,25z"/>
	<path class="st0" d="M5.9,0.4c0.2,0.1,0.4,0.2,0.4,0.5c0,0.6,0,1.2-0.1,1.8c0,0.3-0.2,0.4-0.5,0.4H5.1c-0.3,0-0.4-0.2-0.5-0.5
		c0-0.3-0.1-0.5-0.1-0.7C4.3,1.9,3.9,1.8,3.6,1.8C2.6,1.8,2,2.2,2,2.7c0,1.6,4.6,0.9,4.6,3.9c0,1.6-1.3,2.6-3.2,2.6
		C2.2,9.2,1,8.9,0.2,8.4C0,8.3-0.1,8,0.1,7.8l0.4-0.7c0.1-0.2,0.4-0.3,0.6-0.2c0.8,0.4,1.4,0.5,2,0.5c0.9,0,1.4-0.2,1.4-0.7
		C4.6,5.4,0,5.8,0,2.8C0,1.1,1.4,0,3.6,0C4.4,0,5.3,0.1,5.9,0.4z"/>
	<path class="st0" d="M15.6,2.2c0,0.3-0.1,0.6-0.2,0.9c-0.1,0.2-0.3,0.3-0.5,0.3h-0.7c-0.3,0-0.4-0.2-0.5-0.5c0-0.4,0-0.8-0.1-1
		c-0.3-0.1-0.7-0.2-1.2-0.2c-0.5,0-1.1,0.1-1.5,0.3c-0.3,0.4-0.7,1.3-0.7,2.3c0,1.7,0.7,2.9,2.5,2.9c0.6,0,1.2-0.1,1.8-0.4
		C14.9,7,15.1,7,15.2,7.3l0.3,0.6c0.1,0.3,0.1,0.5-0.2,0.6c-0.7,0.4-1.7,0.7-2.8,0.7c-2.7,0-4.2-1.8-4.2-4.6C8.4,1.9,9.8,0,12.5,0
		C14.5,0,15.6,0.9,15.6,2.2z"/>
	<path class="st0" d="M23.6,9.2c-0.6,0-1.3-0.3-1.7-1l-1.2-2.1h-1.5v2.5c0,0.3-0.2,0.5-0.5,0.5h-1c-0.3,0-0.5-0.2-0.5-0.5V0.6
		c0-0.3,0.2-0.5,0.4-0.5C18.7,0,19.3,0,19.9,0c2.4,0,3.9,1.1,3.9,2.9c0,1.1-0.6,1.9-1.3,2.5l0.8,1.3c0.2,0.3,0.4,0.5,0.6,0.7
		c0.1,0,0.3,0,0.5,0.1c0.3,0,0.5,0.2,0.5,0.5v0.7c0,0.2-0.1,0.4-0.3,0.5C24.2,9.2,23.9,9.2,23.6,9.2z M19.3,1.8v2.8h1.7
		c0.5-0.3,0.8-0.8,0.8-1.5c0-0.9-0.6-1.4-1.7-1.4C19.8,1.7,19.5,1.7,19.3,1.8z"/>
	<path class="st0" d="M34.4,4.6c0,2.8-1.5,4.7-4.2,4.7c-2.7,0-4.2-1.9-4.2-4.7c0-2.7,1.4-4.6,4.2-4.6C33,0,34.4,1.9,34.4,4.6z
		 M28.7,2.2C28.3,2.7,28,3.6,28,4.6c0,1.7,0.6,2.8,2.4,2.8c0.6,0,1.1-0.2,1.4-0.4c0.4-0.5,0.7-1.4,0.7-2.4c0-1.8-0.6-2.8-2.4-2.8
		C29.7,1.8,29.1,2,28.7,2.2z"/>
	<path class="st0" d="M38.4,7.4h3.7c0.3,0,0.5,0.2,0.5,0.5v0.8c0,0.3-0.2,0.5-0.5,0.5h-5.2c-0.3,0-0.5-0.2-0.5-0.5V0.6
		c0-0.3,0.2-0.5,0.5-0.5h1c0.3,0,0.5,0.2,0.5,0.5V7.4z"/>
	<path class="st0" d="M45.8,7.4h3.7c0.3,0,0.5,0.2,0.5,0.5v0.8c0,0.3-0.2,0.5-0.5,0.5h-5.2c-0.3,0-0.5-0.2-0.5-0.5V0.6
		c0-0.3,0.2-0.5,0.5-0.5h1c0.3,0,0.5,0.2,0.5,0.5V7.4z"/>
</g>
</svg>
