<?xml version="1.0" encoding="utf-8"?>
<!-- Generator: Adobe Illustrator 24.0.2, SVG Export Plug-In . SVG Version: 6.00 Build 0)  -->
<svg version="1.1" id="Capa_1" xmlns="http://www.w3.org/2000/svg" xmlns:xlink="http://www.w3.org/1999/xlink" x="0px" y="0px"
	 viewBox="0 0 50 50" style="enable-background:new 0 0 50 50;" xml:space="preserve">
<style type="text/css">
	.st0{fill:#009CDE;}
	.st1{fill:#FFFFFF;}
</style>
<g>
	<circle class="st0" cx="25" cy="25" r="25"/>
	<g>
		<path class="st1" d="M16.7,35.3H34c1.5,0,2.7-1.2,2.7-2.7V17.4c0-0.4-0.1-0.7-0.3-1l-3.7-4.7c-0.2-0.3-0.6-0.5-0.9-0.6V9.9
			c0-0.9-0.7-1.5-1.5-1.5h-9.6c-0.8,0-1.5,0.7-1.5,1.5v1.2c-0.4,0.1-0.7,0.3-0.9,0.6l-3.7,4.7c-0.2,0.3-0.3,0.6-0.3,1v15.2
			C14,34.1,15.2,35.3,16.7,35.3z M20.3,9.9c0-0.1,0.1-0.3,0.3-0.3h9.6c0.1,0,0.3,0.1,0.3,0.3v1.2H20.3V9.9z M15.3,17.4
			c0-0.1,0-0.1,0.1-0.2l3.7-4.7c0.1-0.1,0.2-0.2,0.3-0.2h11.9c0.1,0,0.2,0.1,0.3,0.2l3.7,4.7c0,0,0.1,0.1,0.1,0.2v15.2
			c0,0.8-0.6,1.5-1.4,1.5H16.7c-0.8,0-1.4-0.7-1.4-1.5V17.4z"/>
		<path class="st1" d="M39.2,27.1c-0.3-0.1-0.7,0.1-0.8,0.4c-0.1,0.3,0.1,0.7,0.4,0.8c3.5,1.1,5.7,2.7,5.7,4.1c0,1.4-2.1,2.9-5.5,4
			c-3.8,1.2-8.8,1.9-14.1,1.9s-10.4-0.7-14.1-1.9c-3.4-1.1-5.5-2.6-5.5-4c0-1.4,1.9-2.8,5.2-3.9l-0.3,0.7c-0.1,0.3,0,0.7,0.3,0.8
			c0.3,0.1,0.7,0,0.8-0.3l0.9-2.1c0,0,0,0,0,0c0,0,0,0,0,0c0.1-0.3,0-0.7-0.3-0.8l-2.1-0.9c-0.3-0.1-0.7,0-0.8,0.3
			c-0.1,0.3,0,0.7,0.3,0.8l0.7,0.3c-3.9,1.3-6,3.1-6,5.2c0,2.1,2.2,3.9,6.4,5.3c3.9,1.3,9,2,14.5,2c5.5,0,10.6-0.7,14.5-2
			c4.2-1.4,6.4-3.2,6.4-5.3C45.8,30.3,43.5,28.4,39.2,27.1z"/>
	</g>
</g>
</svg>
