<?xml version="1.0" encoding="utf-8"?>
<!-- Generator: Adobe Illustrator 22.1.0, SVG Export Plug-In . SVG Version: 6.00 Build 0)  -->
<svg version="1.1" id="Capa_1" xmlns="http://www.w3.org/2000/svg" xmlns:xlink="http://www.w3.org/1999/xlink" x="0px" y="0px"
	 viewBox="0 0 13 15" style="enable-background:new 0 0 13 15;" xml:space="preserve">
<style type="text/css">
	.st0{fill:#00AFD7;}
</style>
<g>
	<path class="st0" d="M11.6,13.6H1.4c-0.6,0-1.1-0.5-1.1-1.1V2.4c0-0.6,0.5-1.1,1.1-1.1h10.2c0.6,0,1.1,0.5,1.1,1.1
		c0,0.1-0.1,0.2-0.2,0.2c-0.1,0-0.2-0.1-0.2-0.2c0-0.4-0.3-0.6-0.7-0.6H1.4C1,1.8,0.7,2.1,0.7,2.4v10.1c0,0.4,0.3,0.7,0.7,0.7h10.2
		c0.4,0,0.7-0.3,0.7-0.7V4.4c0-0.1,0.1-0.2,0.2-0.2c0.1,0,0.2,0.1,0.2,0.2v8.2C12.7,13.1,12.2,13.6,11.6,13.6z"/>
	<path class="st0" d="M4.1,11.9H2.3c-0.1,0-0.2-0.1-0.2-0.2V6c0-0.1,0.1-0.2,0.2-0.2h1.8c0.1,0,0.2,0.1,0.2,0.2
		c0,0.1-0.1,0.2-0.2,0.2H2.5v5.2h1.4V7.1c0-0.1,0.1-0.2,0.2-0.2s0.2,0.1,0.2,0.2v4.6C4.3,11.8,4.2,11.9,4.1,11.9z M3.2,5.5
		C2.5,5.5,2,4.9,2,4.2C2,3.6,2.5,3,3.2,3s1.2,0.5,1.2,1.2C4.4,4.9,3.9,5.5,3.2,5.5z M3.2,3.4c-0.5,0-0.8,0.4-0.8,0.8
		C2.4,4.7,2.7,5,3.2,5S4,4.7,4,4.2C4,3.8,3.6,3.4,3.2,3.4z"/>
	<path class="st0" d="M10.7,11.9H8.9c-0.1,0-0.2-0.1-0.2-0.2V10c0-0.1,0.1-0.2,0.2-0.2C9,9.8,9.1,9.9,9.1,10v1.5h1.4V8.6
		c0-0.9-0.1-1.4-0.4-1.8C9.8,6.3,9.3,6.1,8.6,6.1c-0.8,0-1.3,0.4-1.5,0.8C7.1,7,7,7,6.9,7h0C6.8,7,6.7,6.9,6.7,6.8V6.2H5.4v5.2h1.4
		V8.9c0-0.3,0-0.8,0.2-1.1C7.2,7.4,7.5,7.2,8,7.2c0.5,0,0.8,0.2,1,0.6c0.1,0.3,0.1,0.8,0.1,1.1C9.1,9,9,9.1,8.9,9.1
		C8.8,9.1,8.7,9,8.7,8.9C8.7,8,8.6,7.6,8,7.6C7.6,7.6,7.4,7.8,7.3,8C7.2,8.2,7.2,8.6,7.2,8.9v2.8c0,0.1-0.1,0.2-0.2,0.2H5.2
		c-0.1,0-0.2-0.1-0.2-0.2V6c0-0.1,0.1-0.2,0.2-0.2h1.7C7,5.8,7.1,5.9,7.1,6v0.2C7.2,6.1,7.3,6.1,7.4,6c0.3-0.2,0.7-0.3,1.2-0.3
		c2,0,2.3,1.5,2.3,2.9v3.1C10.9,11.8,10.8,11.9,10.7,11.9z"/>
</g>
</svg>
