<?xml version="1.0" encoding="utf-8"?>
<!-- Generator: Adobe Illustrator 22.1.0, SVG Export Plug-In . SVG Version: 6.00 Build 0)  -->
<svg version="1.1" id="Capa_1" xmlns="http://www.w3.org/2000/svg" xmlns:xlink="http://www.w3.org/1999/xlink" x="0px" y="0px"
	 viewBox="0 0 8 15" style="enable-background:new 0 0 8 15;" xml:space="preserve">
<style type="text/css">
	.st0{fill:#00AFD7;}
</style>
<path class="st0" d="M3.6,14.7c-0.4,0-0.7,0-1.1,0c-0.1,0-0.2,0-0.3-0.1c-0.1-0.1-0.1-0.2-0.1-0.3l0-1.8c0-0.7,0-1.4,0-2.1
	c0-0.1,0.1-0.2,0.2-0.2l0,0c0.1,0,0.2,0.1,0.2,0.2c0,0.7,0,1.4,0,2.1l0,1.8c0.7,0,1.4,0,2.1,0v-1.8c0-1.6,0-3.7,0-4.4
	c0-0.1,0-0.2,0.1-0.3C4.8,7.7,4.9,7.7,5,7.7c0.7,0,1.4,0,2.1,0c0-0.1,0-0.3,0-0.6c0-0.5,0-1,0.1-1.3l-0.4,0c-0.6,0-1.2,0-1.8,0
	c0,0-0.2,0-0.3-0.1C4.6,5.6,4.6,5.5,4.6,5.4c0-0.1,0-0.2,0-0.2c0-0.1,0-0.1,0-0.2c0-0.1,0-0.3,0-0.4c0-0.4,0-0.7,0-1.1
	c0-0.5,0.3-0.8,0.8-0.9c0.1,0,0.5,0,1.7,0c0,0,0.1,0,0.1,0c0-0.1,0-0.4,0-0.8c0-0.4,0-0.8,0-1c-0.4,0-1.3-0.1-1.7-0.1
	C5.1,0.8,4.7,0.8,4.3,1C3.5,1.3,3,1.8,2.7,2.5C2.6,2.8,2.5,3.2,2.5,3.6l0,0.4c0,0.5,0,1,0,1.4c0,0,0,0.2-0.1,0.3
	C2.3,5.8,2.2,5.8,2.2,5.8c-0.4,0-0.7,0-1.1,0c-0.1,0-0.2,0-0.3,0c0,0.6,0,1.3,0,1.9c0.1,0,0.3,0,0.4,0c0.2,0,0.4,0,0.7,0
	c0.4,0,0.7,0.3,0.7,0.9c0,0.1-0.1,0.2-0.2,0.2c-0.1,0-0.2-0.1-0.2-0.2c0-0.1,0-0.2-0.1-0.3c0-0.1-0.1-0.1-0.2-0.1
	c-0.3,0-0.5,0-0.7,0c-0.1,0-0.3,0-0.5,0C0.4,8.2,0.3,8,0.3,7.8c0-0.7,0-1.4,0-2c0-0.1,0-0.2,0.1-0.3c0.1-0.1,0.2-0.1,0.3-0.1
	c0.1,0,0.2,0,0.4,0c0.3,0,0.7,0,1,0c0-0.4,0-0.9,0-1.3l0-0.4c0-0.5,0.1-0.9,0.2-1.2c0.3-0.9,1-1.5,1.9-1.8c0.5-0.2,0.9-0.3,1.4-0.3
	c0.4,0,1.6,0.1,1.8,0.1c0.2,0,0.3,0.2,0.3,0.4c0,0.2,0,0.7,0,1.1c0,0.4,0,0.8,0,0.9c0,0.2-0.1,0.3-0.3,0.3c0,0,0,0-0.3,0
	c-0.4,0-1.4,0-1.6,0C5.3,3.1,5.1,3.3,5.1,3.5c0,0.4,0,0.7,0,1.1c0,0.1,0,0.3,0,0.4c0,0.1,0,0.1,0,0.2c0,0,0,0.1,0,0.1
	c0.6,0,1.1,0,1.7,0l0.5,0c0.1,0,0.2,0,0.3,0.1c0.1,0.1,0.1,0.2,0.1,0.3c0,0.3,0,0.9-0.1,1.4c0,0.3,0,0.6,0,0.6
	c0,0.3-0.1,0.4-0.4,0.4c-0.7,0-1.4,0-2.1,0c0,0.8,0,2.7,0,4.3v1.8c0,0.1,0,0.2-0.1,0.3c-0.1,0.1-0.2,0.1-0.3,0.1
	C4.3,14.7,3.9,14.7,3.6,14.7z M2.5,14.3L2.5,14.3L2.5,14.3z M2.1,5.5L2.1,5.5L2.1,5.5z M5.5,3.1L5.5,3.1L5.5,3.1z"/>
</svg>
