<?xml version="1.0" encoding="utf-8"?>
<!-- Generator: Adobe Illustrator 22.1.0, SVG Export Plug-In . SVG Version: 6.00 Build 0)  -->
<svg version="1.1" id="Capa_1" xmlns="http://www.w3.org/2000/svg" xmlns:xlink="http://www.w3.org/1999/xlink" x="0px" y="0px"
	 viewBox="0 0 15 15" style="enable-background:new 0 0 15 15;" xml:space="preserve">
<style type="text/css">
	.st0{fill:#00AFD7;}
</style>
<path class="st0" d="M4.9,13.4c-0.2,0-0.5,0-0.7,0c-0.7-0.1-1.4-0.2-2.1-0.4c-0.6-0.2-1.7-0.8-1.7-0.8c-0.1-0.1-0.1-0.2-0.1-0.3
	c0-0.1,0.1-0.2,0.2-0.2c1.3,0.1,2.5-0.2,3.6-0.8c-0.4-0.1-0.8-0.3-1.2-0.5C2.4,10,2,9.5,1.8,8.8c0-0.1,0-0.2,0-0.2
	c0-0.1,0.1-0.1,0.2-0.1c0.1,0,0.1,0,0.2,0c0,0,0,0,0,0C1.3,8,0.8,7.1,0.8,5.9c0-0.1,0-0.2,0.1-0.2c0.1,0,0.2-0.1,0.2,0
	c0.1,0.1,0.3,0.1,0.4,0.2c-0.4-0.5-0.6-1-0.7-1.6C0.7,3.5,0.9,2.8,1.2,2.2c0-0.1,0.1-0.1,0.2-0.1c0.1,0,0.2,0,0.2,0.1
	c1,1.2,2.2,2,3.6,2.5c0.1,0,0.2,0.2,0.1,0.3c0,0.1-0.2,0.2-0.3,0.1C3.7,4.7,2.5,3.9,1.5,2.8C1.3,3.2,1.2,3.6,1.3,4.1
	C1.4,4.9,1.8,5.5,2.4,6C2.5,6,2.6,6.1,2.5,6.2c0,0.1-0.1,0.2-0.2,0.2c0,0,0,0,0,0c-0.4,0-0.7-0.1-1-0.2c0.2,1.1,0.8,1.9,2,2.2
	c0.1,0,0.2,0.1,0.2,0.2c0,0.1-0.1,0.2-0.2,0.2C3.1,8.9,2.9,9,2.7,9C2.6,9,2.5,9,2.4,9c0.2,0.4,0.5,0.7,0.8,1
	c0.4,0.3,0.9,0.5,1.5,0.5c0.1,0,0.2,0.1,0.2,0.2c0,0.1,0,0.2-0.1,0.3c-0.6,0.5-1.3,0.8-2.1,1c-0.4,0.1-0.8,0.2-1.3,0.2
	c0.3,0.1,0.6,0.3,0.7,0.3c0.7,0.2,1.3,0.4,2,0.4c1.2,0.1,2.4-0.1,3.5-0.5c1-0.4,1.9-0.9,2.6-1.6c0.6-0.5,1.1-1.2,1.5-1.9
	c0.4-0.7,0.7-1.5,0.9-2.3c0.1-0.6,0.2-1.3,0.2-1.9c0-0.1,0.1-0.3,0.2-0.4l0.1-0.1c0.2-0.1,0.4-0.3,0.5-0.4c0.1-0.1,0.2-0.2,0.2-0.2
	c0,0,0,0,0,0c-0.2,0.1-0.4,0.1-0.6,0.1c-0.1,0-0.2,0-0.2,0c-0.1,0-0.2,0-0.3-0.2l0,0c0-0.1,0-0.2,0.1-0.3c0.3-0.2,0.6-0.5,0.8-0.8
	c-0.4,0.2-0.8,0.3-1.2,0.4c-0.2,0-0.3,0-0.4-0.1c-0.4-0.4-0.8-0.6-1.3-0.7c-0.9-0.2-1.7,0-2.3,0.6C7.8,3.3,7.6,3.9,7.6,4.6
	c0,0.4,0,0.7-0.2,0.9C7.2,5.6,7,5.7,6.6,5.6c-0.1,0-0.2-0.1-0.2-0.3c0-0.1,0.1-0.2,0.3-0.2c0.2,0,0.3,0,0.3-0.1
	C7.1,5,7.2,4.8,7.1,4.6C7.1,3.8,7.4,3.1,8.1,2.4c0.8-0.7,1.7-1,2.8-0.8C11.4,1.8,12,2,12.4,2.5c0.5-0.1,1.1-0.3,1.5-0.6
	c0,0,0,0,0.1,0c0,0,0,0,0,0c0.1,0,0.2,0,0.3,0c0.1,0.1,0.1,0.2,0.1,0.3c-0.1,0.4-0.3,0.8-0.6,1.1c0.1,0,0.3-0.1,0.4-0.1
	C14.3,3,14.4,3,14.4,3c0.1,0,0.2,0,0.3,0.1c0.1,0.1,0.1,0.2,0,0.3c-0.2,0.4-0.5,0.7-0.8,0.9c-0.2,0.2-0.4,0.3-0.5,0.5l-0.1,0
	c0,0.7,0,1.3-0.2,2c-0.2,0.9-0.5,1.7-0.9,2.5c-0.4,0.7-0.9,1.4-1.5,2c-0.8,0.8-1.7,1.3-2.8,1.7C6.9,13.2,5.9,13.4,4.9,13.4z
	 M12.4,2.5L12.4,2.5L12.4,2.5z"/>
</svg>
