<?xml version="1.0" encoding="utf-8"?>
<!-- Generator: Adobe Illustrator 22.1.0, SVG Export Plug-In . SVG Version: 6.00 Build 0)  -->
<svg version="1.1" id="Capa_1" xmlns="http://www.w3.org/2000/svg" xmlns:xlink="http://www.w3.org/1999/xlink" x="0px" y="0px"
	 viewBox="0 0 19 15" style="enable-background:new 0 0 19 15;" xml:space="preserve">
<style type="text/css">
	.st0{fill:#00AFD7;}
</style>
<g>
	<path class="st0" d="M18.7,3c-1.2,0-1.5,1.3-1.5,2v6.4c0,0.8-0.6,1.4-1.4,1.4H2c-0.8,0-1.4-0.6-1.4-1.4V3.6c0-0.8,0.6-1.4,1.4-1.4
		h13.7c0.1,0,0.2-0.1,0.2-0.2c0-0.1-0.1-0.2-0.2-0.2H2c-1.1,0-1.9,0.9-1.9,1.9v7.9c0,1.1,0.9,1.9,1.9,1.9h13.7
		c1.1,0,1.9-0.9,1.9-1.9V5.1c0-0.1,0-1.5,1-1.5c0.1,0,0.2-0.1,0.2-0.2C18.9,3.2,18.8,3,18.7,3z"/>
	<path class="st0" d="M7.5,5.1C7.4,5.2,7.3,5.3,7.3,5.5v4c0,0.2,0.1,0.3,0.2,0.4c0.1,0,0.1,0.1,0.2,0.1c0.1,0,0.1,0,0.2-0.1l3.5-2
		c0.1-0.1,0.2-0.2,0.2-0.4c0-0.2-0.1-0.3-0.2-0.4L8,5.1C7.8,5,7.7,5,7.5,5.1z M7.8,9.4V5.6l3.3,1.9L7.8,9.4z"/>
</g>
</svg>
