<?xml version="1.0" encoding="utf-8"?>
<!-- Generator: Adobe Illustrator 22.1.0, SVG Export Plug-In . SVG Version: 6.00 Build 0)  -->
<svg version="1.1" id="Capa_1" xmlns="http://www.w3.org/2000/svg" xmlns:xlink="http://www.w3.org/1999/xlink" x="0px" y="0px"
	 viewBox="0 0 11 9" style="enable-background:new 0 0 11 9;" xml:space="preserve">
<style type="text/css">
	.st0{fill:#00AFD7;}
</style>
<g>
	<path class="st0" d="M10.5,0.2h-10c-0.2,0-0.3,0.1-0.3,0.3v7.3C0.2,7.9,0.3,8,0.5,8s0.3-0.1,0.3-0.3V1.1l4.5,3.7
		c0.1,0,0.1,0.1,0.2,0.1c0,0,0,0,0,0c0,0,0,0,0,0c0.1,0,0.1,0,0.2-0.1l4.5-3.7v7.2H2.2C2,8.3,1.9,8.4,1.9,8.5S2,8.8,2.2,8.8h8.3
		c0.2,0,0.3-0.1,0.3-0.3V0.5C10.8,0.3,10.7,0.2,10.5,0.2z M7,3C7,3,6.9,3,7,3L5.5,4.1L4.1,3c0,0,0,0,0,0L1.3,0.7h8.4L7,3z"/>
</g>
</svg>
