<?xml version="1.0" encoding="utf-8"?>
<!-- Generator: Adobe Illustrator 22.1.0, SVG Export Plug-In . SVG Version: 6.00 Build 0)  -->
<svg version="1.1" id="Capa_1" xmlns="http://www.w3.org/2000/svg" xmlns:xlink="http://www.w3.org/1999/xlink" x="0px" y="0px"
	 viewBox="0 0 13 14" style="enable-background:new 0 0 13 14;" xml:space="preserve">
<style type="text/css">
	.st0{fill:#00AFD7;}
</style>
<g>
	<path class="st0" d="M10.3,4.3c0,0.2,0.2,0.4,0.4,0.4c0.2,0,0.4-0.2,0.4-0.4c0-1.3-1.1-2.3-2.4-2.3c-0.2,0-0.4,0.2-0.4,0.4
		c0,0.2,0.2,0.4,0.4,0.4C9.6,2.7,10.3,3.4,10.3,4.3z"/>
	<path class="st0" d="M8.7,0.1c-0.2,0-0.4,0.2-0.4,0.4c0,0.2,0.2,0.4,0.4,0.4c1.9,0,3.5,1.5,3.5,3.4c0,0.2,0.2,0.4,0.4,0.4
		c0.2,0,0.4-0.2,0.4-0.4C13,2,11.1,0.1,8.7,0.1z"/>
	<path class="st0" d="M7.8,11.6c0.1,0,0.1,0,0.2,0c0.2-0.1,0.3-0.4,0.2-0.6c-0.1-0.2-0.4-0.3-0.6-0.2c-0.2,0.1-0.3,0.4-0.2,0.6
		C7.4,11.5,7.6,11.6,7.8,11.6z"/>
	<path class="st0" d="M5.6,2C5.6,1.8,5.3,1.8,5.1,1.9L0.9,3.8c0,0,0,0,0-0.1C0.8,3.4,0.7,3.2,0.8,3.1c0-0.1,0.2-0.3,0.4-0.3
		c0,0,3.2-1.4,4-1.8l0.1,0c0.4-0.2,0.6-0.1,0.9,0.5l0.4,0.8c0.4,0.8,1,2,1.6,3.4C8.4,6,8.7,6.6,8.9,7.1C9,7.3,9.1,7.3,9.3,7.3
		c0.1,0,0.1,0,0.2,0C9.6,7.2,9.7,7,9.6,6.8c-1-2-1.9-4-2.4-5L6.8,1c-0.4-0.9-1.1-1.2-2-0.8C4.1,0.6,0.9,2,0.9,2
		C0.5,2.2,0.2,2.5,0.1,2.8C0,3.2,0,3.6,0.2,4c0,0.1,0.1,0.2,0.2,0.4c0.1,0.2,0.3,0.3,0.5,0.2c0,0,0,0,0,0c0,0,0,0,0,0l4.5-2
		C5.6,2.4,5.7,2.2,5.6,2z"/>
	<path class="st0" d="M10.4,8.4c-0.1-0.1-0.2-0.2-0.4-0.2c0,0-0.1,0-0.1,0c0,0,0,0,0,0l-5.6,2.5c-0.5-1-1-2-1.4-3
		C2.4,6.9,2.1,6.1,1.8,5.5C1.7,5.3,1.5,5.2,1.3,5.3C1.1,5.4,1,5.6,1.1,5.8C1.4,6.4,1.8,7.2,2.2,8c0.5,1.1,1.1,2.3,1.6,3.3
		c0.1,0.1,0.2,0.2,0.3,0.2c0.1,0,0.1,0,0.2,0L9.8,9l0.6,1.3c0.3,0.5,0.1,0.7-0.3,0.9c-0.3,0.2-1.4,0.6-2.3,1C7,12.7,6.2,13,6,13.2
		c-0.1,0.1-0.2,0.1-0.3,0c-0.2-0.1-0.3-0.3-0.5-0.6v0l0,0c0,0-0.1-0.1-0.1-0.1c-0.1-0.2-0.3-0.3-0.5-0.2c-0.2,0.1-0.3,0.3-0.2,0.5
		L4.5,13c0,0,0,0,0,0l0.1,0.1c0,0,0,0,0,0l0,0.1h0c0,0,0,0,0,0c0.2,0.4,0.5,0.6,0.8,0.7c0.1,0,0.2,0.1,0.4,0.1c0.2,0,0.4,0,0.5-0.1
		c0.3-0.1,1-0.5,1.9-0.8c1-0.4,2-0.9,2.3-1c0.6-0.3,1.3-0.8,0.7-1.9L10.4,8.4z"/>
</g>
</svg>
