<?xml version="1.0" encoding="utf-8"?>
<!-- Generator: Adobe Illustrator 24.0.2, SVG Export Plug-In . SVG Version: 6.00 Build 0)  -->
<svg version="1.1" id="Capa_1" xmlns="http://www.w3.org/2000/svg" xmlns:xlink="http://www.w3.org/1999/xlink" x="0px" y="0px"
	 viewBox="0 0 22 54" style="enable-background:new 0 0 22 54;" xml:space="preserve">
<style type="text/css">
	.st0{fill:#1D2B4E;}
</style>
<g>
	<path class="st0" d="M2.3,33.1c-0.5,0-0.9-0.4-0.9-0.9L1,17.1c0,0,0,0,0,0C1,13.5,6,12,11,12c0,0,0,0,0,0c5,0,10,1.6,10,5.1
		c0,0,0,0,0,0l-0.4,15.2c0,0.5-0.4,0.9-0.9,0.9c0,0,0,0,0,0c-0.5,0-0.9-0.4-0.9-0.9L19.2,17c0-1.1-1.3-1.9-2.3-2.3
		c-1.5-0.6-3.7-1-5.9-1c0,0,0,0,0,0c-2.2,0-4.4,0.4-5.9,1c-1,0.4-2.3,1.2-2.3,2.3l0.4,15.2C3.2,32.7,2.8,33.1,2.3,33.1
		C2.3,33.1,2.3,33.1,2.3,33.1z"/>
	<path class="st0" d="M11,53.2c-0.5,0-0.9-0.4-0.9-0.9V34.7c0-0.5,0.4-0.9,0.9-0.9s0.9,0.4,0.9,0.9v17.5
		C11.9,52.8,11.5,53.2,11,53.2z"/>
	<path class="st0" d="M15.5,53.2C15.5,53.2,15.5,53.2,15.5,53.2c-0.5,0-0.9-0.5-0.9-1l0.9-17.8V19c0-0.5,0.4-0.9,0.9-0.9
		c0.5,0,0.9,0.4,0.9,0.9v15.4c0,0,0,0,0,0l-0.9,17.8C16.4,52.8,16,53.2,15.5,53.2z"/>
	<path class="st0" d="M6.5,53.2c-0.5,0-0.9-0.4-0.9-0.9L4.7,34.5c0,0,0,0,0,0V19c0-0.5,0.4-0.9,0.9-0.9s0.9,0.4,0.9,0.9v15.4
		l0.9,17.8C7.4,52.7,7,53.2,6.5,53.2C6.5,53.2,6.5,53.2,6.5,53.2z"/>
	<path class="st0" d="M11,11.5c-0.2,0-0.4,0-0.7-0.1c0,0,0,0-0.1,0c-1.3-0.3-2.5-1.2-3.1-2.2C6.6,8.1,6.4,5.5,6.4,4.5
		C6.6,2.3,8.5,0.8,11,0.8c0,0,0,0,0,0c2.5,0,4.4,1.5,4.6,3.7c0,0,0,0,0,0c0.1,1-0.1,3.6-0.7,4.7c-0.6,1-1.8,1.9-3.1,2.2
		c0,0,0,0-0.1,0C11.4,11.5,11.2,11.5,11,11.5z M10.6,9.6c0.4,0.1,0.4,0.1,0.8,0c0.9-0.2,1.6-0.8,1.8-1.3c0.3-0.6,0.6-2.7,0.5-3.7
		l0,0c-0.1-1.4-1.5-2-2.8-2c-1.3,0-2.6,0.6-2.8,2c-0.1,1,0.2,3,0.5,3.7C9,8.8,9.7,9.4,10.6,9.6z"/>
</g>
</svg>
