<svg id="Capa_1" data-name="Capa 1" xmlns="http://www.w3.org/2000/svg" viewBox="0 0 268.24 92.78"><defs><style>.cls-1{fill:#3aabe2;}.cls-2{fill:#90d0f3;}.cls-3{fill:#1585c8;}</style></defs><path class="cls-1" d="M159.55,74.3l-.13-5.56c0-.88-.07-1.63-.13-2.28l1.14-.24.1,1.47h0a3.3,3.3,0,0,1,2.31-2.16A1.69,1.69,0,0,1,165,66.84a3.26,3.26,0,0,1,2.41-2.28,1.83,1.83,0,0,1,2.25,1.59,8.22,8.22,0,0,1,.14,1.3l.11,4.63-1.26.27-.12-4.52a5,5,0,0,0-.09-1c-.18-.79-.58-1.25-1.42-1.07s-1.81,1.53-1.76,3.27l.09,4-1.24.26-.11-4.6a5.53,5.53,0,0,0-.1-.94c-.14-.63-.45-1.26-1.4-1s-1.84,1.7-1.8,3.37l.11,3.92Z"/><path class="cls-1" d="M177.12,70.54c-.1-.45-.17-1.18-.25-2h0c-.5,1.72-1.41,2.51-2.48,2.73a2.28,2.28,0,0,1-2.7-2,5.38,5.38,0,0,1,4.07-6.5,7,7,0,0,1,2.09-.14l.06,4.09a18.39,18.39,0,0,0,.43,3.56Zm-.57-6.75a3.21,3.21,0,0,0-.92.09c-1.95.41-3.09,2.79-2.67,4.88.19.84.66,1.6,1.65,1.39s2-1.9,2-4Zm.58-4.42L175.51,62l-1,.23,1.07-2.56Z"/><path class="cls-1" d="M180,68.55a3.37,3.37,0,0,0,1.71.12,1.33,1.33,0,0,0,1.17-1.53c-.13-.6-.47-.9-1.34-1.17a2.3,2.3,0,0,1-1.76-1.62A2.55,2.55,0,0,1,182,61.42a3.19,3.19,0,0,1,1.65,0l-.14,1.06a2.62,2.62,0,0,0-1.38-.07,1.24,1.24,0,0,0-1.1,1.42c.12.55.55.82,1.3,1.05a2.38,2.38,0,0,1,1.83,1.67c.34,1.6-.76,2.77-2.34,3.11a3.46,3.46,0,0,1-2-.14Z"/><path class="cls-1" d="M188.93,60.14,190.54,64c.36.83.57,1.37.76,1.92h0c.1-.52.2-1.11.41-2l1-4.61,1.37-.29-1.59,6.33a14.33,14.33,0,0,1-1.75,4.5,4.94,4.94,0,0,1-1.92,1.79l-.55-1a5.07,5.07,0,0,0,1.23-1,6,6,0,0,0,1.08-2,.55.55,0,0,0,0-.36l-3-6.75Z"/><path class="cls-1" d="M198.58,66l-.12-5.56c0-.87-.07-1.63-.13-2.27l1.14-.24.1,1.46h0a3.3,3.3,0,0,1,2.32-2.16A1.68,1.68,0,0,1,204,58.49a3.28,3.28,0,0,1,2.41-2.27,1.83,1.83,0,0,1,2.24,1.59,7.26,7.26,0,0,1,.15,1.3l.12,4.64-1.27.27-.11-4.52a5.11,5.11,0,0,0-.11-1c-.16-.79-.57-1.25-1.41-1.06s-1.8,1.53-1.75,3.26l.08,4-1.25.26-.1-4.6a4.75,4.75,0,0,0-.1-.94c-.14-.64-.45-1.25-1.4-1s-1.85,1.7-1.8,3.37l.11,3.93Z"/><path class="cls-1" d="M216.5,61.68a5.41,5.41,0,0,1-2.36,1.13c-2,.43-3.15-.76-3.51-2.43-.49-2.26.65-5.19,3.08-5.71a2,2,0,0,1,2.62,1.46c.43,2-1.69,3-4.49,3.53a3.43,3.43,0,0,0,.46,1.4,1.76,1.76,0,0,0,1.9.65,4.31,4.31,0,0,0,1.91-1Zm-1.4-5.25c-.13-.61-.68-.85-1.36-.71-1.23.26-1.9,1.66-2,2.91,2-.42,3.55-1,3.32-2.19Z"/><path class="cls-1" d="M219.41,53.63l.17,7.81a5.27,5.27,0,0,1-.41,2.75,2.41,2.41,0,0,1-1.57,1.11,2.69,2.69,0,0,1-.87.08l-.07-1a3.16,3.16,0,0,0,.61-.06c.65-.14,1.08-.66,1-2.28l-.2-8.09Zm-.67-1.21a.74.74,0,0,1-.9-.65.9.9,0,0,1,.67-1.06.77.77,0,0,1,.94.65.88.88,0,0,1-.69,1.06Z"/><path class="cls-1" d="M228,54.91c.49,2.31-.65,5.08-3.16,5.62a3,3,0,0,1-3.61-2.47c-.52-2.47.71-5.15,3.16-5.67A2.94,2.94,0,0,1,228,54.91Zm-5.43,2.81c.25,1.24,1.11,2,2.21,1.75,1.53-.33,2.27-2.54,1.89-4.3a1.91,1.91,0,0,0-2.21-1.73C222.85,53.79,222.18,56,222.57,57.72Z"/><path class="cls-1" d="M229.87,59.28l-.11-5.06c0-1-.11-2-.18-2.77l1.13-.23c0,.54.1,1.08.15,1.68h0a2.78,2.78,0,0,1,1.91-2.31l.37,0,0,1.33a1.77,1.77,0,0,0-.35,0c-1.12.24-1.83,1.81-1.78,3.64l.09,3.45Z"/><path class="cls-1" d="M242.66,56.55a16.67,16.67,0,0,1-.24-2h0c-.49,1.73-1.4,2.51-2.47,2.74a2.28,2.28,0,0,1-2.7-2,5.38,5.38,0,0,1,4.07-6.5,6.92,6.92,0,0,1,2.08-.13l.08,4.08a17.72,17.72,0,0,0,.41,3.56Zm-.57-6.75a3.48,3.48,0,0,0-.92.08c-1.94.42-3.1,2.79-2.67,4.88.18.85.65,1.61,1.65,1.39s2-1.9,2-4Z"/><path class="cls-1" d="M246.22,57.57a4,4,0,0,0,2.11.07c1.26-.26,2.12-1.13,2.13-3.26l0-1.18h-.06a3,3,0,0,1-2.27,2.17,2.43,2.43,0,0,1-2.84-2.14,5,5,0,0,1,3.69-6.1,6.07,6.07,0,0,1,2.52,0l.19,6.47a5.73,5.73,0,0,1-.82,3.69,4,4,0,0,1-2.46,1.4,4.6,4.6,0,0,1-2.36,0Zm4-9.36a3.15,3.15,0,0,0-1.3,0c-1.87.4-2.75,2.64-2.36,4.51.17.83.68,1.74,1.83,1.5s1.94-1.88,1.9-3.42Z"/><path class="cls-1" d="M259.68,45l.13,5.55c0,.88.07,1.63.13,2.28l-1.18.25-.1-1.46h0a3.39,3.39,0,0,1-2.32,2.15c-1,.21-2.07,0-2.44-1.75a5.89,5.89,0,0,1-.12-1.29l-.1-4.44,1.28-.28.11,4.38a5.61,5.61,0,0,0,.09,1.14c.17.77.61,1.23,1.5,1s1.9-1.54,1.85-3.28l-.09-4Z"/><path class="cls-1" d="M267.05,51.34a18.39,18.39,0,0,1-.24-2h0a3.36,3.36,0,0,1-2.47,2.74,2.28,2.28,0,0,1-2.7-2,5.38,5.38,0,0,1,4.07-6.5,7.34,7.34,0,0,1,2.09-.14l.07,4.09a18.48,18.48,0,0,0,.41,3.56Zm-.55-6.75a3.56,3.56,0,0,0-.94.08c-1.95.42-3.1,2.8-2.67,4.89.18.84.65,1.59,1.65,1.38s2-1.9,2-4Z"/><path d="M243.44,34.56a3.87,3.87,0,0,1,1.85.5,3.37,3.37,0,0,1,1.41,1.39,4,4,0,0,1,.49,1.9,3.74,3.74,0,0,1-.49,1.87,3.53,3.53,0,0,1-1.39,1.4,3.85,3.85,0,0,1-3.76,0,3.56,3.56,0,0,1-1.4-1.4,3.86,3.86,0,0,1-.5-1.87,3.94,3.94,0,0,1,.5-1.9,3.46,3.46,0,0,1,1.42-1.39A3.88,3.88,0,0,1,243.44,34.56Zm0,.63a3.22,3.22,0,0,0-1.57.42,2.88,2.88,0,0,0-1.16,1.16,3.12,3.12,0,0,0-.44,1.58,3.22,3.22,0,0,0,.42,1.55,2.89,2.89,0,0,0,1.18,1.17,3,3,0,0,0,1.57.42,3.1,3.1,0,0,0,1.56-.42,3,3,0,0,0,1.16-1.17,3.16,3.16,0,0,0,0-3.13A2.89,2.89,0,0,0,245,35.61,3,3,0,0,0,243.44,35.19Zm-1.66,5.24V36.37h1.39a4,4,0,0,1,1,.1.92.92,0,0,1,.52.41,1,1,0,0,1,.19.59,1.09,1.09,0,0,1-.32.78,1.21,1.21,0,0,1-.84.36,1.12,1.12,0,0,1,.34.23,4.38,4.38,0,0,1,.6.8l.49.79h-.79l-.37-.64a3.37,3.37,0,0,0-.67-.94.91.91,0,0,0-.54-.15h-.38v1.73Zm.65-2.28h.79A1.25,1.25,0,0,0,244,38a.54.54,0,0,0,.21-.45.51.51,0,0,0-.1-.32.58.58,0,0,0-.28-.21,2,2,0,0,0-.66-.07h-.75Z"/><path d="M209.48,40.05V29.59a10.92,10.92,0,0,0-1.81-6.72,8,8,0,0,0-4.44-3.1,13.79,13.79,0,0,0-6.19.07,28.72,28.72,0,0,0-10.14,4.65v8.28a18.28,18.28,0,0,1,7.42-4.8c1.74-.51,3.45-.79,4.33-.36,1.33.64,1.28,1.65,1.31,2.87q-16.15,5.46-16.14,14.82a7.72,7.72,0,0,0,2.87,6.43,7.43,7.43,0,0,0,6.48,1.54,8.84,8.84,0,0,0,3.57-1.68A16,16,0,0,0,200,48.16c0,2.86,1.5,2.66,2.18,2.51s9.22-1.94,9.22-1.94C210.14,48.26,209.17,47,209.48,40.05ZM200,39.63a7.36,7.36,0,0,1-.83,3.57,3.49,3.49,0,0,1-2.41,1.85,2.48,2.48,0,0,1-2.33-.62,3.26,3.26,0,0,1-1-2.53q0-4.3,6.56-6.28Z"/><path d="M108.5,46.71l-4.69,1V60.45q0,2.94,2.34,2.43a4.88,4.88,0,0,0,2.35-1.37V70a20.54,20.54,0,0,1-5.85,2.25c-3.24.67-5.6.39-7.12-.81S93.26,68,93.26,64.73V49.91l-3.79.8V43.05s3.12-.67,3.81-.8c-.41-7.45,1.59-8.06,3.81-8.57l6.26-1.19v7.64l5.15-1.08Z"/><path d="M176.06,14.75c-1,.29-4.67,1.76-4.78,8.31v34l5.64-1.19c1-.27,4.68-1.77,4.78-8.31v-34Z"/><path d="M166,31.13a7.15,7.15,0,0,0-7.87-3A8.82,8.82,0,0,0,154.28,30a12.85,12.85,0,0,0-2.77,3.22c0-1.46.19-2.9-1.4-2.7s-9.38,2-9.38,2a2.51,2.51,0,0,1,.51,1.38c0,.89,0,44.18,0,44.18l6.36-1.34c2.28-.63,4.07-1,4.07-6.21V59.57a9.06,9.06,0,0,0,2.79,1.28,7.17,7.17,0,0,0,3.06,0,11.19,11.19,0,0,0,5.89-3.49,20.63,20.63,0,0,0,4.1-6.9,25.71,25.71,0,0,0,1.5-8.81A17.66,17.66,0,0,0,166,31.13ZM157.29,50a4.19,4.19,0,0,1-2.9,2.63,2.67,2.67,0,0,1-1.57-.11,3.49,3.49,0,0,1-1.31-1V43.94a9.59,9.59,0,0,1,.81-4.36,3.43,3.43,0,0,1,2.39-1.89A2.35,2.35,0,0,1,157.34,39a10.48,10.48,0,0,1,1,5.23A13.52,13.52,0,0,1,157.29,50Z"/><path d="M232.33,42.05a17.1,17.1,0,0,1-9.27,5.07,21.06,21.06,0,0,1-10.22-.58V37c3.32,2.06,6.2,2.81,8.63,2.31a5.08,5.08,0,0,0,2.4-1.24,2.88,2.88,0,0,0,1-2.17,1.5,1.5,0,0,0-.79-1.38,9.89,9.89,0,0,0-3-.86c-3.48-.62-5.72-1.61-6.74-3a7.36,7.36,0,0,1-1.53-4.42,10.46,10.46,0,0,1,3.58-7.75,17.6,17.6,0,0,1,8.69-4.47,19,19,0,0,1,8.78.19v9.26A9.13,9.13,0,0,0,227,21.84a5.13,5.13,0,0,0-2.24,1,2.05,2.05,0,0,0-.74,1.65c0,.93,1.07,1.51,3.21,1.75,5.82.71,8.75,3.2,8.75,7.47A12,12,0,0,1,232.33,42.05Z"/><path d="M85.14,47.5q-4.11-3.39-10.54-2a16.84,16.84,0,0,0-10.44,6.79,21,21,0,0,0-4,12.74q0,7,3.79,10.78c2.53,2.48,6.06,3.28,10.58,2.32A17.07,17.07,0,0,0,85.3,71.22a20.79,20.79,0,0,0,4-12.68C89.27,53.43,87.89,49.76,85.14,47.5ZM77.57,67.3A4.1,4.1,0,0,1,74.65,70a2.41,2.41,0,0,1-2.88-1.45,13.69,13.69,0,0,1-1-6,17,17,0,0,1,1-6.44,4.11,4.11,0,0,1,2.9-2.68,2.42,2.42,0,0,1,2.89,1.48,14.06,14.06,0,0,1,1,6.05A16.67,16.67,0,0,1,77.57,67.3Z"/><path d="M135,37.22q-4.11-3.37-10.54-2A16.86,16.86,0,0,0,114,42a21,21,0,0,0-4,12.74c0,4.68,1.27,8.28,3.79,10.77s6.06,3.27,10.58,2.33A17.28,17.28,0,0,0,135.13,61a21,21,0,0,0,4-12.7C139.08,43.15,137.71,39.48,135,37.22ZM127.39,57a4.08,4.08,0,0,1-2.92,2.65,2.4,2.4,0,0,1-2.88-1.45c-.66-1.24-1-3.23-1-6a16.45,16.45,0,0,1,1-6.43,4.08,4.08,0,0,1,2.89-2.7,2.46,2.46,0,0,1,2.9,1.48,14.3,14.3,0,0,1,1,6.06A16.93,16.93,0,0,1,127.39,57Z"/><path d="M57.43,67.65c-.55-2.52-2.11-4.87-4.37-5.52,3.84-2.05,7-5.55,7-12.17,0-3.25-1.47-6.7-3.57-8s-4.57-1.59-9.17-.5c0,0-11.93,2.57-16.15,3.3.86.1,1.14.64,1.15,1.64s0,39.62,0,39.62L38,84.9c2.65-.63,4.67-1.56,4.76-6.06l0-12.11,1-.2c1.35-.28,3.34-.39,4.27,2.65.48,1.59,1.17,6.42,1.65,9.53s2.55,3.25,4.14,3,7.66-1.53,8.21-1.67C59.15,79.32,58.18,71.18,57.43,67.65Zm-9-11a5.66,5.66,0,0,1-3.53,2.07l-2.15.44,0-9,2.62-.52a3.74,3.74,0,0,1,3.2.39,3.41,3.41,0,0,1,1,2.91A5.91,5.91,0,0,1,48.43,56.66Z"/><path class="cls-2" d="M62.21,25.11s0,0-.05-.05,0,0-.06,0a7.83,7.83,0,0,0-4.65-1.77,23.83,23.83,0,0,0-5.42.09C24.18,25.92,0,50.49,0,80A121.67,121.67,0,0,0,1.1,92.78l.69-.16c-.19-1.79-.48-5.77-.48-7.62,0-28,22.93-50.88,50.38-50.88,1.87,0,5.61.27,6.89.24h.07a5.38,5.38,0,0,0,3.59-9.22Z"/><path class="cls-1" d="M70.73,10.68a26.36,26.36,0,0,0-7-.85,65.51,65.51,0,0,0-50,22.91A62.2,62.2,0,0,0,3,51.4l1.11-.26A54.59,54.59,0,0,1,14.94,36.28a56.69,56.69,0,0,1,40.39-15.9,72.08,72.08,0,0,1,8.11.72c2.24.3,4.28.65,5.33.72h.34a5.69,5.69,0,0,0,1.62-11.14Z"/><path class="cls-3" d="M40.42,10.52C43.69,9.61,48.59,9,51.18,8.45A4.24,4.24,0,0,0,50.85,0a19.54,19.54,0,0,0-5.79.75A41,41,0,0,0,34.46,5,48.68,48.68,0,0,0,15.6,25.08L16.68,25A50.48,50.48,0,0,1,40.42,10.52Z"/></svg>